#!OML:ASF I:\salsa\salsa 7_09\Patient 1\Session 1\dancerfemale.ASF
:FULLY-SPECIFIED
:DEGREES
2102
root -6.2992 15.8947 1.20856 -1259.64 -676.751 -1261.13
lowerback 1.515 1.07191 -6.5758
upperback -7.25998 1.35875 -0.211319
thorax -8.67143 1.25085 3.31046
lowerneck 10.1883 -14.5034 -12.7044
upperneck 3.4645 -20.5909 12.3899
head 2.02049 -10.483 5.4732
rclavicle -1.04064e-013 -2.78299e-014
rhumerus 0.195767 -33.6159 -87.0993
rradius 67.665
rwrist -57.1387
rhand -23.8145 46.2466
rfingers 7.12502
rthumb 2.65654 16.2833
lclavicle -1.04064e-013 -2.78299e-014
lhumerus -44.6115 10.1393 63.4146
lradius 98.8723
lwrist -19.9381
lhand -3.95162 35.403
lfingers 7.12502
lthumb 21.8004 -295.805
rfemur -23.0562 -1.07339 13.3337
rtibia 50.723
rfoot -12.5563 -8.55278
rtoes -17.1318
lfemur -10.0264 2.68563 -27.3111
ltibia 37.0972
lfoot -27.9156 -3.09572
ltoes -14.1712
2103
root -6.41759 15.8718 1.2308 -1260.5 -675.291 -1261.92
lowerback 1.67367 1.47235 -6.54265
upperback -7.09317 1.8508 -0.615394
thorax -8.61981 1.46106 2.8151
lowerneck 10.2848 -14.4948 -12.295
upperneck 3.12701 -20.5246 12.3841
head 1.85467 -10.452 5.44899
rclavicle 2.72335e-014 -1.59028e-015
rhumerus -0.78312 -34.021 -87.4107
rradius 67.0264
rwrist -56.784
rhand -23.6424 46.2819
rfingers 7.12502
rthumb 2.8227 16.3208
lclavicle 2.72335e-014 -1.59028e-015
lhumerus -44.2409 10.8551 64.2695
lradius 99.3011
lwrist -19.8529
lhand -3.83829 35.9318
lfingers 7.12502
lthumb 21.9092 -295.289
rfemur -22.3617 -2.54772 13.4395
rtibia 52.2493
rfoot -13.0871 -9.19875
rtoes -17.1907
lfemur -10.0885 4.34992 -28.0393
ltibia 37.2592
lfoot -28.0874 -3.50468
ltoes -13.8979
2104
root -6.5333 15.8442 1.24998 -1261.01 -673.742 -1262.35
lowerback 1.60775 1.77379 -6.17109
upperback -6.91475 2.25732 -0.877035
thorax -8.39422 1.60883 2.29985
lowerneck 10.0494 -14.345 -12.2289
upperneck 3.18736 -20.3074 12.4018
head 1.87647 -10.3372 5.43808
rclavicle 4.78077e-014 3.49861e-014
rhumerus -1.64337 -33.8671 -87.7529
rradius 66.3793
rwrist -56.5281
rhand -23.3908 46.4174
rfingers 7.12502
rthumb 3.06566 16.4597
lclavicle 4.78077e-014 3.49861e-014
lhumerus -44.1498 11.7517 65.0024
lradius 99.6433
lwrist -19.8991
lhand -3.86549 36.0957
lfingers 7.12502
lthumb 21.8831 -295.122
rfemur -21.6765 -4.03062 13.8032
rtibia 53.6259
rfoot -13.8238 -9.50628
rtoes -17.1584
lfemur -10.4395 6.29687 -28.5315
ltibia 37.4357
lfoot -28.433 -3.63952
ltoes -15.066
2105
root -6.64398 15.8176 1.26376 -1261.56 -672.286 -1262.84
lowerback 1.48272 1.93652 -5.78859
upperback -6.75159 2.48817 -1.04784
thorax -8.1324 1.67585 1.89652
lowerneck 10.0525 -14.0323 -12.6632
upperneck 3.13344 -19.9473 12.7139
head 1.88802 -10.1692 5.60752
rclavicle 5.01931e-014 8.74653e-015
rhumerus -2.49096 -33.2198 -87.9854
rradius 65.7221
rwrist -56.2041
rhand -23.3503 46.2161
rfingers 7.12502
rthumb 3.10477 16.259
lclavicle 5.01931e-014 8.74653e-015
lhumerus -44.3936 12.7264 65.5845
lradius 99.9393
lwrist -19.9044
lhand -3.52602 35.9895
lfingers 7.12502
lthumb 22.2091 -295.266
rfemur -20.804 -5.52146 14.0765
rtibia 54.8383
rfoot -14.2039 -9.84326
rtoes -16.7362
lfemur -10.7311 8.1392 -29.0097
ltibia 37.5451
lfoot -28.7656 -4.03181
ltoes -15.1109
2106
root -6.74821 15.7973 1.26571 -1262.41 -670.803 -1263.8
lowerback 1.20506 2.16021 -5.6261
upperback -6.57734 2.7979 -1.33846
thorax -7.77941 1.79416 1.49178
lowerneck 9.87048 -13.8037 -12.7738
upperneck 3.13368 -19.6458 12.7803
head 1.8941 -10.0182 5.64593
rclavicle -1.04163e-013 -3.18055e-014
rhumerus -3.22762 -32.6809 -88.0938
rradius 65.1846
rwrist -55.6378
rhand -22.4403 46.729
rfingers 7.12502
rthumb 3.98357 16.7865
lclavicle -1.04163e-013 -3.18055e-014
lhumerus -44.5573 13.357 66.168
lradius 100.079
lwrist -19.9458
lhand -3.15745 35.9955
lfingers 7.12502
lthumb 22.5628 -295.303
rfemur -19.87 -7.06597 13.9302
rtibia 55.7901
rfoot -14.0423 -10.428
rtoes -16.2263
lfemur -11.0063 9.65846 -29.8409
ltibia 37.7104
lfoot -29.2364 -4.29267
ltoes -14.4758
2107
root -6.84284 15.7839 1.27148 -1262.73 -669.261 -1264.1
lowerback 0.932405 2.41519 -5.06641
upperback -6.40675 3.16878 -1.56205
thorax -7.41133 1.92189 0.937943
lowerneck 9.34175 -13.6536 -12.4554
upperneck 3.3599 -19.3799 12.5275
head 1.95342 -9.86386 5.49917
rclavicle -4.73108e-014 -1.03368e-014
rhumerus -3.72777 -32.2131 -88.3517
rradius 64.7012
rwrist -54.932
rhand -22.2189 46.215
rfingers 7.12502
rthumb 4.19742 16.2766
lclavicle -4.73108e-014 -1.03368e-014
lhumerus -44.6642 13.7748 66.605
lradius 100.099
lwrist -20.0694
lhand -2.77486 36.1606
lfingers 7.12502
lthumb 22.93 -295.183
rfemur -18.8769 -8.4641 14.3319
rtibia 56.52
rfoot -13.9185 -11.1858
rtoes -16.5084
lfemur -11.2847 10.7167 -30.1995
ltibia 37.7653
lfoot -29.7164 -4.087
ltoes -14.01
